<svg width="37" height="27" viewBox="0 0 37 27" fill="none" xmlns="http://www.w3.org/2000/svg">
<path id="yotube" d="M36.2276 4.16447C36.0127 3.36218 35.603 2.63144 35.0383 2.04299C34.4736 1.45454 33.7729 1.02833 33.0041 0.805629C30.1184 3.85143e-05 18.5176 3.87091e-05 18.5176 3.87091e-05C18.5176 3.87091e-05 6.93885 -0.019286 4.02304 0.805629C3.25552 1.02931 2.55623 1.45597 1.99277 2.04436C1.4293 2.63275 1.02073 3.36298 0.806522 4.16447C0.258522 7.24941 -0.0113768 10.3812 0.000367318 13.5187C-0.00497978 16.6412 0.264877 19.7575 0.806522 22.8283C1.02142 23.6302 1.43012 24.361 1.99339 24.9505C2.55665 25.5399 3.25557 25.9683 4.02304 26.1944C6.90878 27 18.5176 27 18.5176 27C18.5176 27 30.0895 27 33.0041 26.1944C33.7728 25.9693 34.4731 25.5413 35.0377 24.9518C35.6022 24.3623 36.012 23.631 36.2276 22.8283C36.7585 19.7593 37.0176 16.6384 36.9991 13.5187C37.0176 10.3785 36.7643 7.25277 36.2276 4.16447ZM14.8119 19.3004V7.71173L24.4684 13.5187L14.8119 19.3004Z" fill="#E4B374"/>
</svg>
