<svg width="27" height="23" viewBox="0 0 27 23" fill="none" xmlns="http://www.w3.org/2000/svg">
<path id="email" d="M0 2.875C0 2.1125 0.284463 1.38123 0.790812 0.842068C1.29716 0.302901 1.98392 0 2.7 0H24.3C25.0161 0 25.7028 0.302901 26.2092 0.842068C26.7155 1.38123 27 2.1125 27 2.875V20.125C27 20.8875 26.7155 21.6188 26.2092 22.1579C25.7028 22.6971 25.0161 23 24.3 23H2.7C1.98392 23 1.29716 22.6971 0.790812 22.1579C0.284463 21.6188 0 20.8875 0 20.125V2.875ZM4.75065 2.875L13.5 11.0271L22.2494 2.875H4.75065ZM24.3 4.78544L14.3897 14.0199C14.1435 14.2496 13.8273 14.3762 13.5 14.3762C13.1727 14.3762 12.8565 14.2496 12.6103 14.0199L2.7 4.78544V20.125H24.3V4.78544Z" fill="#E4B374"/>
</svg>
