<svg width="27" height="27" viewBox="0 0 27 27" fill="none" xmlns="http://www.w3.org/2000/svg">
<g id="Group 3">
<path id="Vector" d="M13.5 8.73413C12.2341 8.73413 11.0201 9.23617 10.1249 10.1298C9.22981 11.0234 8.72693 12.2355 8.72693 13.4993C8.72693 14.7631 9.22981 15.9751 10.1249 16.8687C11.0201 17.7624 12.2341 18.2644 13.5 18.2644C14.7659 18.2644 15.98 17.7624 16.8751 16.8687C17.7702 15.9751 18.2731 14.7631 18.2731 13.4993C18.2731 12.2355 17.7702 11.0234 16.8751 10.1298C15.98 9.23617 14.7659 8.73413 13.5 8.73413Z" fill="#E4B374"/>
<path id="instagram" fill-rule="evenodd" clip-rule="evenodd" d="M5.81905 0.423693C10.9241 -0.141231 16.076 -0.141231 21.181 0.423693C23.97 0.734526 26.2184 2.92649 26.546 5.72105C27.1513 10.8889 27.1513 16.1095 26.546 21.2774C26.2184 24.0719 23.97 26.2639 21.1825 26.5762C16.077 27.1413 10.9246 27.1413 5.81905 26.5762C3.0301 26.2639 0.781616 24.0719 0.454109 21.2788C-0.15137 16.1105 -0.15137 10.8894 0.454109 5.72105C0.781616 2.92649 3.0301 0.734526 5.81905 0.423693ZM20.8432 4.70205C20.4537 4.70205 20.0802 4.85652 19.8047 5.13148C19.5293 5.40645 19.3746 5.77938 19.3746 6.16824C19.3746 6.5571 19.5293 6.93003 19.8047 7.20499C20.0802 7.47996 20.4537 7.63443 20.8432 7.63443C21.2327 7.63443 21.6063 7.47996 21.8817 7.20499C22.1571 6.93003 22.3119 6.5571 22.3119 6.16824C22.3119 5.77938 22.1571 5.40645 21.8817 5.13148C21.6063 4.85652 21.2327 4.70205 20.8432 4.70205ZM6.524 13.4992C6.524 11.6521 7.25897 9.8807 8.56723 8.57462C9.87549 7.26854 11.6499 6.53479 13.5 6.53479C15.3502 6.53479 17.1246 7.26854 18.4328 8.57462C19.7411 9.8807 20.4761 11.6521 20.4761 13.4992C20.4761 15.3463 19.7411 17.1177 18.4328 18.4238C17.1246 19.7299 15.3502 20.4636 13.5 20.4636C11.6499 20.4636 9.87549 19.7299 8.56723 18.4238C7.25897 17.1177 6.524 15.3463 6.524 13.4992Z" fill="#E4B374"/>
</g>
</svg>
