<svg width="42" height="26" viewBox="0 0 42 26" fill="none" xmlns="http://www.w3.org/2000/svg">
<path d="M27.133 2.74219H14.6909V22.9047H27.133V2.74219Z" fill="#FF5F00"/>
<path d="M15.9725 12.8252C15.9693 8.89139 17.7894 5.17459 20.9084 2.74577C15.6098 -1.38572 8.00091 -0.783933 3.42896 4.12821C-1.14299 9.04035 -1.14299 16.6137 3.42896 21.5258C8.00091 26.4379 15.6098 27.0397 20.9084 22.9082C17.7885 20.4786 15.9682 16.7603 15.9725 12.8252Z" fill="#EB001B"/>
<path d="M40.3439 20.9124V20.4811H40.5218V20.4092H40.0947V20.4811H40.2727V20.9124H40.3439Z" fill="#F79E1B"/>
<path d="M41.1628 20.4092H41.0204L40.878 20.7686L40.7356 20.4092H40.5933V20.9124H40.7V20.517L40.8184 20.8405H40.9492L41.0637 20.517V20.9124H41.1628V20.4092Z" fill="#F79E1B"/>
<path d="M41.8185 12.8253C41.8185 17.7344 38.9931 22.2126 34.5427 24.3579C30.0922 26.5031 24.7979 25.9389 20.9082 22.9047C24.0258 20.4739 25.846 16.7576 25.846 12.8235C25.846 8.88946 24.0258 5.17316 20.9082 2.74227C24.7979 -0.291853 30.0922 -0.856104 34.5427 1.28916C38.9931 3.43443 41.8185 7.91258 41.8185 12.8217V12.8253Z" fill="#F79E1B"/>
</svg>
