<svg width="29" height="25" viewBox="0 0 29 25" fill="none" xmlns="http://www.w3.org/2000/svg">
<path d="M5.31317 19.0648V13.0396L0 16.0971L5.31317 19.0648Z" fill="#EA6D6B"/>
<path d="M28.2081 7.10433C28.0149 6.47483 27.8217 5.93526 27.5319 5.30577C27.5319 5.30577 27.5319 5.21586 27.4353 5.21586C27.1455 4.58637 26.759 4.04678 26.276 3.50721C24.5371 1.34894 21.8323 0 18.741 0C18.3546 0 18.0647 -2.19564e-05 17.6783 0.0899059C17.2919 0.0899059 16.9055 0.1799 16.6157 0.269828C15.9395 0.449683 15.2633 0.629473 14.587 0.989185C14.3938 1.07911 14.2972 1.16911 14.104 1.16911C13.3312 1.52882 12.655 2.06834 12.0754 2.69784C11.5924 3.14748 11.1093 3.68709 10.7229 4.31658C10.6263 4.40651 10.6264 4.49637 10.5298 4.5863C10.5298 4.5863 10.5297 4.67632 10.4331 4.67632C10.3365 4.85617 10.2399 5.12591 10.0467 5.30577C9.56372 6.20505 9.27391 7.1943 9.08071 8.27343C8.9841 8.72307 8.98401 9.17262 8.98401 9.53234V10.6115V11.3309V12.5V24.3704V25H9.27387H15.0701V19.6043V19.3345V18.3453V18.2554V12.5V12.4101V12.1403V11.1511V10.9713V9.62235C15.0701 9.53242 15.0701 9.53236 15.0701 9.44243C15.0701 8.99279 15.1667 8.54313 15.3599 8.18342C15.8429 6.8345 17.1953 5.93522 18.6443 5.93522C18.8375 5.93522 19.0308 5.93531 19.224 6.02524C20.4799 6.20509 21.5424 7.10435 22.0254 8.36334C22.122 8.72305 22.2187 9.0827 22.2187 9.53234C22.2187 10.0719 22.1221 10.5216 21.9289 10.9713C21.639 11.6008 21.156 12.1403 20.4798 12.5C19.9968 12.7698 19.5138 12.9496 18.9342 12.9496V14.4784V14.5684V16.187V18.9748C21.2527 18.8848 23.4746 18.0755 25.1168 16.6367C26.7591 15.1978 27.9182 13.2195 28.3046 10.9713C28.3046 10.7914 28.4013 10.6115 28.4013 10.4316C28.4013 10.1618 28.4013 9.80214 28.4013 9.44243C28.4979 8.72301 28.4013 7.91368 28.2081 7.10433Z" fill="#EA6D6B"/>
</svg>
