<svg width="30" height="29" viewBox="0 0 30 29" fill="none" xmlns="http://www.w3.org/2000/svg">
<path d="M27.1023 28.3151L17.5568 19.2565C16.7045 19.9035 15.7244 20.4158 14.6165 20.7932C13.5085 21.1707 12.3295 21.3594 11.0795 21.3594C7.98295 21.3594 5.3625 20.3414 3.21818 18.3053C1.07386 16.2693 0.00113636 13.7825 0 10.8449C0 7.90619 1.07273 5.41938 3.21818 3.38441C5.36364 1.34945 7.98409 0.331431 11.0795 0.330353C14.1761 0.330353 16.7966 1.34837 18.9409 3.38441C21.0852 5.42045 22.158 7.90727 22.1591 10.8449C22.1591 12.0311 21.9602 13.15 21.5625 14.2014C21.1648 15.2529 20.625 16.183 19.9432 16.9918L29.5312 26.0909C29.8438 26.3875 30 26.7514 30 27.1828C30 27.6142 29.8295 27.9916 29.4886 28.3151C29.1761 28.6117 28.7784 28.76 28.2955 28.76C27.8125 28.76 27.4148 28.6117 27.1023 28.3151ZM11.0795 18.1241C13.2102 18.1241 15.0216 17.4162 16.5136 16.0002C18.0057 14.5843 18.7511 12.8658 18.75 10.8449C18.75 8.82284 18.004 7.10386 16.5119 5.6879C15.0199 4.27195 13.2091 3.56451 11.0795 3.56559C8.94886 3.56559 7.1375 4.27356 5.64545 5.68952C4.15341 7.10547 3.40795 8.82392 3.40909 10.8449C3.40909 12.8669 4.15511 14.5859 5.64716 16.0018C7.1392 17.4178 8.95 18.1252 11.0795 18.1241Z" fill="white"/>
</svg>
