<svg width="24" height="24" viewBox="0 0 24 24" fill="none" xmlns="http://www.w3.org/2000/svg">
<g id="fa-brands:snapchat">
<path id="Vector" d="M12 4C7.58065 4 4 7.58065 4 12C4 16.4194 7.58065 20 12 20C16.4194 20 20 16.4194 20 12C20 7.58065 16.4194 4 12 4ZM17.4677 14.9323C17.3548 15.1935 16.8839 15.3839 16.0226 15.5194C15.9774 15.5806 15.9419 15.8355 15.8839 16.0323C15.8484 16.1516 15.7645 16.2226 15.6226 16.2226H15.6161C15.4161 16.2226 15.2032 16.129 14.7839 16.129C14.2161 16.129 14.0194 16.2581 13.5774 16.571C13.1097 16.9032 12.6613 17.1871 11.9903 17.1581C11.3129 17.2097 10.7452 16.7968 10.4258 16.571C9.98064 16.2581 9.7871 16.129 9.21935 16.129C8.81613 16.129 8.56129 16.229 8.3871 16.229C8.2129 16.229 8.14516 16.1226 8.11935 16.0355C8.06129 15.8387 8.02581 15.5806 7.98065 15.5194C7.53548 15.4516 6.53548 15.2774 6.5129 14.829C6.50645 14.7129 6.5871 14.6097 6.70323 14.5903C8.19677 14.3452 8.86774 12.8129 8.89677 12.7484C8.89677 12.7452 8.9 12.7419 8.90323 12.7387C8.98387 12.5774 9 12.4419 8.95484 12.3355C8.84516 12.0806 8.37742 11.9903 8.18065 11.9097C7.67097 11.7097 7.6 11.4774 7.63226 11.3194C7.68387 11.0452 8.09677 10.8742 8.33871 10.9871C8.52903 11.0774 8.7 11.1226 8.84516 11.1226C8.95161 11.1226 9.02258 11.0968 9.05806 11.0774C9.0129 10.3065 8.90645 9.20645 9.18064 8.59032C9.90645 6.96774 11.4419 6.83871 11.8935 6.83871C11.9129 6.83871 12.0903 6.83548 12.1097 6.83548C13.229 6.83548 14.3032 7.40968 14.829 8.5871C15.1032 9.20323 14.9968 10.3 14.9516 11.0742C14.9871 11.0935 15.0452 11.1161 15.1355 11.1194C15.2742 11.1129 15.4323 11.0677 15.6097 10.9839C15.7387 10.9226 15.9194 10.9323 16.0484 10.9839C16.2516 11.0581 16.3806 11.2032 16.3839 11.3677C16.3871 11.5774 16.2 11.7581 15.829 11.9032C15.7839 11.9226 15.729 11.9387 15.671 11.9581C15.4613 12.0258 15.1419 12.1258 15.0581 12.329C15.0129 12.4355 15.0323 12.571 15.1097 12.7323C15.1129 12.7355 15.1129 12.7387 15.1161 12.7419C15.1452 12.8065 15.8161 14.3387 17.3097 14.5839C17.4387 14.6161 17.5387 14.7613 17.4677 14.9323Z" fill="white"/>
</g>
</svg>
