<svg width="24" height="24" viewBox="0 0 24 24" fill="none" xmlns="http://www.w3.org/2000/svg">
<g id="formkit:twitter">
<path id="Vector" d="M12 4C16.4229 4 20 7.57714 20 12C20 16.4229 16.4229 20 12 20C7.57714 20 4 16.4229 4 12C4 7.57714 7.57714 4 12 4ZM10.5371 16.2171C14.08 16.2171 16.0229 13.28 16.0229 10.7314V10.48C16.4 10.2057 16.7314 9.86286 16.9829 9.47429C16.64 9.62286 16.2629 9.72571 15.8743 9.78286C16.2743 9.54286 16.5829 9.16571 16.72 8.72C16.3429 8.93714 15.9314 9.09714 15.4971 9.18857C15.1429 8.81143 14.64 8.58286 14.0914 8.58286C13.0286 8.58286 12.16 9.45143 12.16 10.5143C12.16 10.6629 12.1714 10.8114 12.2171 10.9486C10.6171 10.8686 9.18857 10.1029 8.24 8.93714C8.08 9.22286 7.97714 9.55429 7.97714 9.90857C7.97714 10.5714 8.32 11.1657 8.83429 11.5086C8.51429 11.5086 8.21714 11.4171 7.96571 11.2686V11.2914C7.96571 12.2286 8.62857 13.0057 9.50857 13.1886C9.34857 13.2343 9.17714 13.2571 9.00571 13.2571C8.88 13.2571 8.76571 13.2457 8.64 13.2229C8.88 13.9886 9.6 14.5486 10.4343 14.56C9.77143 15.0743 8.93714 15.3829 8.03429 15.3829C7.87429 15.3829 7.72571 15.3829 7.57714 15.36C8.42286 15.9086 9.44 16.2286 10.5257 16.2286" fill="white"/>
</g>
</svg>
