<svg width="64" height="21" viewBox="0 0 64 21" fill="none" xmlns="http://www.w3.org/2000/svg">
<path d="M24.7392 1.17577L16.4901 20.5178H11.1088L7.04994 5.08482C6.80385 4.13336 6.59057 3.78503 5.83916 3.38509C4.61525 2.73359 2.594 2.12078 0.818848 1.7402L0.940254 1.179H9.60275C10.7053 1.179 11.6995 1.90146 11.9488 3.15287L14.0915 14.3446L19.3907 1.179L24.7392 1.17577ZM45.8212 14.2059C45.8442 9.1003 38.6385 8.8197 38.6878 6.53942C38.7042 5.84599 39.3768 5.1074 40.8468 4.92033C41.5753 4.8268 43.5867 4.75584 45.8638 5.78471L46.7596 1.68214C45.5357 1.24673 43.9574 0.824219 41.9985 0.824219C36.9684 0.824219 33.4246 3.45283 33.3951 7.21996C33.3623 10.0034 35.9217 11.558 37.851 12.4836C39.8362 13.4319 40.5023 14.0414 40.4924 14.8865C40.4793 16.183 38.9109 16.7571 37.4442 16.7797C34.8848 16.8184 33.4017 16.0992 32.2171 15.5573L31.2951 19.7954C32.4862 20.3307 34.6813 20.7984 36.9553 20.8242C42.307 20.8242 45.8048 18.2246 45.8212 14.2059ZM59.1103 20.521H63.8188L59.7074 1.17577H55.3631C54.3853 1.17577 53.5617 1.73375 53.1974 2.5949L45.5587 20.5178H50.9038L51.9637 17.628H58.4967L59.1103 20.521ZM53.4304 13.6673L56.1112 6.40396L57.6534 13.6673H53.4304ZM32.0104 1.17577L27.8006 20.5178H22.7113L26.9212 1.17577H32.0104Z" fill="#1434CB"/>
</svg>
